<mxfile>
    <diagram id="-eXFAZke36wqUJXHRe3i" name="Deployment">
        <mxGraphModel dx="1747" dy="884" grid="1" gridSize="10" guides="1" tooltips="1" connect="1" arrows="1" fold="1" page="1" pageScale="1" pageWidth="1169" pageHeight="827" math="0" shadow="0">
            <root>
                <mxCell id="0"/>
                <mxCell id="1" parent="0"/>
                <mxCell id="2" value="Deployment Server" style="verticalAlign=top;align=left;shape=cube;size=10;direction=south;fontStyle=0;html=1;boundedLbl=1;spacingLeft=5;" parent="1" vertex="1">
                    <mxGeometry x="310" y="399" width="350" height="230" as="geometry"/>
                </mxCell>
                <mxCell id="3" value="MainNode" style="verticalAlign=top;align=center;shape=cube;size=10;direction=south;html=1;boundedLbl=1;spacingLeft=5;" parent="2" vertex="1">
                    <mxGeometry width="100" height="80" relative="1" as="geometry">
                        <mxPoint x="10" y="50" as="offset"/>
                    </mxGeometry>
                </mxCell>
                <mxCell id="4" value="ChatNode" style="verticalAlign=top;align=center;shape=cube;size=10;direction=south;html=1;boundedLbl=1;spacingLeft=5;" parent="2" vertex="1">
                    <mxGeometry x="10" y="140" width="100" height="80" as="geometry"/>
                </mxCell>
                <mxCell id="5" value="ImageNode" style="verticalAlign=top;align=center;shape=cube;size=10;direction=south;html=1;boundedLbl=1;spacingLeft=5;" parent="2" vertex="1">
                    <mxGeometry x="120" y="140" width="100" height="80" as="geometry"/>
                </mxCell>
                <mxCell id="6" value="PaintNode" style="verticalAlign=top;align=center;shape=cube;size=10;direction=south;html=1;boundedLbl=1;spacingLeft=5;" parent="2" vertex="1">
                    <mxGeometry x="230" y="140" width="100" height="80" as="geometry"/>
                </mxCell>
                <mxCell id="7" value="External&lt;br&gt;Web Service" style="verticalAlign=top;align=left;shape=cube;size=10;direction=south;fontStyle=0;html=1;boundedLbl=1;spacingLeft=5;" parent="1" vertex="1">
                    <mxGeometry x="710" y="399" width="130" height="140" as="geometry"/>
                </mxCell>
                <mxCell id="8" value="External &lt;br&gt;Image source" style="verticalAlign=top;align=center;shape=cube;size=10;direction=south;html=1;boundedLbl=1;spacingLeft=5;" parent="7" vertex="1">
                    <mxGeometry width="100" height="80" relative="1" as="geometry">
                        <mxPoint x="10" y="50" as="offset"/>
                    </mxGeometry>
                </mxCell>
                <mxCell id="9" value="User machine" style="verticalAlign=top;align=left;shape=cube;size=10;direction=south;fontStyle=0;html=1;boundedLbl=1;spacingLeft=5;" parent="1" vertex="1">
                    <mxGeometry x="310" y="199" width="130" height="140" as="geometry"/>
                </mxCell>
                <mxCell id="10" value="Browser" style="verticalAlign=top;align=center;shape=cube;size=10;direction=south;html=1;boundedLbl=1;spacingLeft=5;" parent="9" vertex="1">
                    <mxGeometry width="100" height="80" relative="1" as="geometry">
                        <mxPoint x="10" y="50" as="offset"/>
                    </mxGeometry>
                </mxCell>
                <mxCell id="11" value="Deployment UML" style="text;strokeColor=none;fillColor=none;html=1;fontSize=24;fontStyle=1;verticalAlign=middle;align=center;" parent="1" vertex="1">
                    <mxGeometry x="480" y="30" width="210" height="40" as="geometry"/>
                </mxCell>
            </root>
        </mxGraphModel>
    </diagram>
    <diagram id="5UI-byoxtsYIDsgE9-n4" name="Home/History Page">
        <mxGraphModel dx="1747" dy="884" grid="1" gridSize="10" guides="1" tooltips="1" connect="1" arrows="1" fold="1" page="1" pageScale="1" pageWidth="1600" pageHeight="900" math="0" shadow="0">
            <root>
                <mxCell id="Yl9-e-bZh0Sq_qEy7O5I-0"/>
                <mxCell id="Yl9-e-bZh0Sq_qEy7O5I-1" parent="Yl9-e-bZh0Sq_qEy7O5I-0"/>
                <mxCell id="Kay3IHyFDyJcU1wZjG8y-44" value="" style="html=1;shadow=0;dashed=0;shape=mxgraph.bootstrap.rrect;rSize=5;strokeColor=#DFDFDF;html=1;whiteSpace=wrap;fillColor=#ffffff;" parent="Yl9-e-bZh0Sq_qEy7O5I-1" vertex="1">
                    <mxGeometry x="410" y="120" width="780" height="360" as="geometry"/>
                </mxCell>
                <mxCell id="Kay3IHyFDyJcU1wZjG8y-45" value="&lt;b&gt;&lt;font style=&quot;font-size: 20px&quot;&gt;Card title&lt;/font&gt;&lt;/b&gt;&lt;br&gt;&lt;br&gt;This is a wider card with supporting text below as a natural lead-in to additional content. This content is a little bit longer.&lt;br&gt;&lt;br&gt;&lt;font color=&quot;#999999&quot; style=&quot;font-size: 12px&quot;&gt;Last udated 3 mind ago&lt;/font&gt;" style="html=1;shadow=0;dashed=0;shape=mxgraph.bootstrap.leftButton;rSize=5;strokeColor=#DFDFDF;html=1;whiteSpace=wrap;fillColor=#ffffff;fontColor=#000000;verticalAlign=top;align=left;spacing=20;spacingBottom=0;fontSize=14;spacingTop=160;" parent="Kay3IHyFDyJcU1wZjG8y-44" vertex="1">
                    <mxGeometry width="260" height="360" relative="1" as="geometry"/>
                </mxCell>
                <mxCell id="Kay3IHyFDyJcU1wZjG8y-58" style="edgeStyle=orthogonalEdgeStyle;rounded=0;orthogonalLoop=1;jettySize=auto;html=1;exitX=1;exitY=0.5;exitDx=0;exitDy=0;exitPerimeter=0;" parent="Kay3IHyFDyJcU1wZjG8y-45" source="Kay3IHyFDyJcU1wZjG8y-46" edge="1">
                    <mxGeometry relative="1" as="geometry">
                        <mxPoint x="670" y="410" as="targetPoint"/>
                    </mxGeometry>
                </mxCell>
                <mxCell id="Kay3IHyFDyJcU1wZjG8y-46" value="Image cap" style="html=1;shadow=0;dashed=0;shape=mxgraph.basic.corner_round_rect;dx=2;perimeter=none;whiteSpace=wrap;fillColor=#868E96;strokeColor=#DFDFDF;fontColor=#DEE2E6;resizeWidth=1;fontSize=18;" parent="Kay3IHyFDyJcU1wZjG8y-45" vertex="1">
                    <mxGeometry width="260" height="160" relative="1" as="geometry"/>
                </mxCell>
                <mxCell id="Kay3IHyFDyJcU1wZjG8y-47" value="&lt;b&gt;&lt;font style=&quot;font-size: 20px&quot;&gt;Card title&lt;/font&gt;&lt;/b&gt;&lt;br&gt;&lt;br&gt;This card has supporting text below as a natural lead-in to additional content.&lt;br&gt;&lt;br&gt;&lt;font color=&quot;#999999&quot; style=&quot;font-size: 12px&quot;&gt;Last udated 3 mind ago&lt;/font&gt;" style="html=1;shadow=0;dashed=0;strokeColor=#DFDFDF;html=1;whiteSpace=wrap;fillColor=#ffffff;fontColor=#000000;verticalAlign=top;align=left;spacing=20;spacingBottom=0;fontSize=14;spacingTop=160;" parent="Kay3IHyFDyJcU1wZjG8y-44" vertex="1">
                    <mxGeometry width="260" height="360" relative="1" as="geometry">
                        <mxPoint x="260" as="offset"/>
                    </mxGeometry>
                </mxCell>
                <mxCell id="Kay3IHyFDyJcU1wZjG8y-48" value="Image cap" style="html=1;shadow=0;dashed=0;perimeter=none;whiteSpace=wrap;fillColor=#868E96;strokeColor=#DFDFDF;fontColor=#DEE2E6;resizeWidth=1;fontSize=18;" parent="Kay3IHyFDyJcU1wZjG8y-47" vertex="1">
                    <mxGeometry width="260" height="160" relative="1" as="geometry"/>
                </mxCell>
                <mxCell id="Kay3IHyFDyJcU1wZjG8y-49" value="&lt;b&gt;&lt;font style=&quot;font-size: 20px&quot;&gt;Card title&lt;/font&gt;&lt;/b&gt;&lt;br&gt;&lt;br&gt;This is a wider card with supporting text below as a natural lead-in to additional content. This card has even longer content than the first to show that equal height action.&lt;br&gt;&lt;br&gt;&lt;font color=&quot;#999999&quot; style=&quot;font-size: 12px&quot;&gt;Last udated 3 mind ago&lt;/font&gt;" style="html=1;shadow=0;dashed=0;shape=mxgraph.bootstrap.rightButton;rSize=5;strokeColor=#DFDFDF;html=1;whiteSpace=wrap;fillColor=#ffffff;fontColor=#000000;verticalAlign=top;align=left;spacing=20;spacingBottom=0;fontSize=14;spacingTop=160;" parent="Kay3IHyFDyJcU1wZjG8y-44" vertex="1">
                    <mxGeometry x="1" width="260" height="360" relative="1" as="geometry">
                        <mxPoint x="-260" as="offset"/>
                    </mxGeometry>
                </mxCell>
                <mxCell id="Kay3IHyFDyJcU1wZjG8y-50" value="Image cap" style="html=1;shadow=0;dashed=0;shape=mxgraph.basic.corner_round_rect;dx=2;flipH=1;perimeter=none;whiteSpace=wrap;fillColor=#868E96;strokeColor=#DFDFDF;fontColor=#DEE2E6;resizeWidth=1;fontSize=18;" parent="Kay3IHyFDyJcU1wZjG8y-49" vertex="1">
                    <mxGeometry width="260" height="160" relative="1" as="geometry"/>
                </mxCell>
                <mxCell id="Yl9-e-bZh0Sq_qEy7O5I-56" value="ImageBrowser" style="html=1;shadow=0;dashed=0;fillColor=#E3F3FD;strokeColor=none;fontSize=16;fontColor=#161819;align=left;spacing=15;" parent="Yl9-e-bZh0Sq_qEy7O5I-1" vertex="1">
                    <mxGeometry width="1600" height="60" as="geometry"/>
                </mxCell>
                <mxCell id="Yl9-e-bZh0Sq_qEy7O5I-57" value="Home" style="fillColor=none;strokeColor=none;fontSize=14;fontColor=#161819;align=center;" parent="Yl9-e-bZh0Sq_qEy7O5I-56" vertex="1">
                    <mxGeometry width="70" height="40" relative="1" as="geometry">
                        <mxPoint x="130" y="10" as="offset"/>
                    </mxGeometry>
                </mxCell>
                <mxCell id="Yl9-e-bZh0Sq_qEy7O5I-58" value="History" style="fillColor=none;strokeColor=none;fontSize=14;fontColor=#71797E;align=center;" parent="Yl9-e-bZh0Sq_qEy7O5I-56" vertex="1">
                    <mxGeometry width="70" height="40" relative="1" as="geometry">
                        <mxPoint x="200" y="10" as="offset"/>
                    </mxGeometry>
                </mxCell>
                <mxCell id="Yl9-e-bZh0Sq_qEy7O5I-60" value="About" style="fillColor=none;strokeColor=none;fontSize=14;fontColor=#71797E;align=center;" parent="Yl9-e-bZh0Sq_qEy7O5I-56" vertex="1">
                    <mxGeometry width="80" height="40" relative="1" as="geometry">
                        <mxPoint x="270" y="10" as="offset"/>
                    </mxGeometry>
                </mxCell>
                <mxCell id="Yl9-e-bZh0Sq_qEy7O5I-61" value="Upload" style="html=1;shadow=0;dashed=0;shape=mxgraph.bootstrap.rrect;rSize=5;fontSize=14;fontColor=#0085FC;strokeColor=#0085FC;fillColor=none;" parent="Yl9-e-bZh0Sq_qEy7O5I-56" vertex="1">
                    <mxGeometry x="1" width="70" height="40" relative="1" as="geometry">
                        <mxPoint x="-80" y="10" as="offset"/>
                    </mxGeometry>
                </mxCell>
                <mxCell id="Kay3IHyFDyJcU1wZjG8y-59" value="" style="html=1;shadow=0;dashed=0;shape=mxgraph.bootstrap.rrect;rSize=5;strokeColor=#DFDFDF;html=1;whiteSpace=wrap;fillColor=#ffffff;" parent="Yl9-e-bZh0Sq_qEy7O5I-1" vertex="1">
                    <mxGeometry x="410" y="500" width="780" height="360" as="geometry"/>
                </mxCell>
                <mxCell id="Kay3IHyFDyJcU1wZjG8y-60" value="&lt;b&gt;&lt;font style=&quot;font-size: 20px&quot;&gt;Card title&lt;/font&gt;&lt;/b&gt;&lt;br&gt;&lt;br&gt;This is a wider card with supporting text below as a natural lead-in to additional content. This content is a little bit longer.&lt;br&gt;&lt;br&gt;&lt;font color=&quot;#999999&quot; style=&quot;font-size: 12px&quot;&gt;Last udated 3 mind ago&lt;/font&gt;" style="html=1;shadow=0;dashed=0;shape=mxgraph.bootstrap.leftButton;rSize=5;strokeColor=#DFDFDF;html=1;whiteSpace=wrap;fillColor=#ffffff;fontColor=#000000;verticalAlign=top;align=left;spacing=20;spacingBottom=0;fontSize=14;spacingTop=160;" parent="Kay3IHyFDyJcU1wZjG8y-59" vertex="1">
                    <mxGeometry width="260" height="360" relative="1" as="geometry"/>
                </mxCell>
                <mxCell id="Kay3IHyFDyJcU1wZjG8y-61" value="Image cap" style="html=1;shadow=0;dashed=0;shape=mxgraph.basic.corner_round_rect;dx=2;perimeter=none;whiteSpace=wrap;fillColor=#868E96;strokeColor=#DFDFDF;fontColor=#DEE2E6;resizeWidth=1;fontSize=18;" parent="Kay3IHyFDyJcU1wZjG8y-60" vertex="1">
                    <mxGeometry width="260" height="160" relative="1" as="geometry"/>
                </mxCell>
                <mxCell id="Kay3IHyFDyJcU1wZjG8y-62" value="&lt;b&gt;&lt;font style=&quot;font-size: 20px&quot;&gt;Card title&lt;/font&gt;&lt;/b&gt;&lt;br&gt;&lt;br&gt;This card has supporting text below as a natural lead-in to additional content.&lt;br&gt;&lt;br&gt;&lt;font color=&quot;#999999&quot; style=&quot;font-size: 12px&quot;&gt;Last udated 3 mind ago&lt;/font&gt;" style="html=1;shadow=0;dashed=0;strokeColor=#DFDFDF;html=1;whiteSpace=wrap;fillColor=#ffffff;fontColor=#000000;verticalAlign=top;align=left;spacing=20;spacingBottom=0;fontSize=14;spacingTop=160;" parent="Kay3IHyFDyJcU1wZjG8y-59" vertex="1">
                    <mxGeometry width="260" height="360" relative="1" as="geometry">
                        <mxPoint x="260" as="offset"/>
                    </mxGeometry>
                </mxCell>
                <mxCell id="Kay3IHyFDyJcU1wZjG8y-63" value="Image cap" style="html=1;shadow=0;dashed=0;perimeter=none;whiteSpace=wrap;fillColor=#868E96;strokeColor=#DFDFDF;fontColor=#DEE2E6;resizeWidth=1;fontSize=18;" parent="Kay3IHyFDyJcU1wZjG8y-62" vertex="1">
                    <mxGeometry width="260" height="160" relative="1" as="geometry"/>
                </mxCell>
                <mxCell id="Kay3IHyFDyJcU1wZjG8y-64" value="&lt;b&gt;&lt;font style=&quot;font-size: 20px&quot;&gt;Card title&lt;/font&gt;&lt;/b&gt;&lt;br&gt;&lt;br&gt;This is a wider card with supporting text below as a natural lead-in to additional content. This card has even longer content than the first to show that equal height action.&lt;br&gt;&lt;br&gt;&lt;font color=&quot;#999999&quot; style=&quot;font-size: 12px&quot;&gt;Last udated 3 mind ago&lt;/font&gt;" style="html=1;shadow=0;dashed=0;shape=mxgraph.bootstrap.rightButton;rSize=5;strokeColor=#DFDFDF;html=1;whiteSpace=wrap;fillColor=#ffffff;fontColor=#000000;verticalAlign=top;align=left;spacing=20;spacingBottom=0;fontSize=14;spacingTop=160;" parent="Kay3IHyFDyJcU1wZjG8y-59" vertex="1">
                    <mxGeometry x="1" width="260" height="360" relative="1" as="geometry">
                        <mxPoint x="-260" as="offset"/>
                    </mxGeometry>
                </mxCell>
                <mxCell id="Kay3IHyFDyJcU1wZjG8y-65" value="Image cap" style="html=1;shadow=0;dashed=0;shape=mxgraph.basic.corner_round_rect;dx=2;flipH=1;perimeter=none;whiteSpace=wrap;fillColor=#868E96;strokeColor=#DFDFDF;fontColor=#DEE2E6;resizeWidth=1;fontSize=18;" parent="Kay3IHyFDyJcU1wZjG8y-64" vertex="1">
                    <mxGeometry width="260" height="160" relative="1" as="geometry"/>
                </mxCell>
            </root>
        </mxGraphModel>
    </diagram>
    <diagram id="hI1TmA0gPF8iEIPupuR5" name="Chat Page">
        <mxGraphModel dx="1747" dy="884" grid="1" gridSize="10" guides="1" tooltips="1" connect="1" arrows="1" fold="1" page="1" pageScale="1" pageWidth="1600" pageHeight="900" math="0" shadow="0">
            <root>
                <mxCell id="npWErWVc9F3IIqFAF1oh-0"/>
                <mxCell id="npWErWVc9F3IIqFAF1oh-1" parent="npWErWVc9F3IIqFAF1oh-0"/>
                <mxCell id="pefPUTUaozCAKBAbkpnW-0" value="ImageBrowser" style="html=1;shadow=0;dashed=0;fillColor=#E3F3FD;strokeColor=none;fontSize=16;fontColor=#161819;align=left;spacing=15;" parent="npWErWVc9F3IIqFAF1oh-1" vertex="1">
                    <mxGeometry width="1600" height="60" as="geometry"/>
                </mxCell>
                <mxCell id="pefPUTUaozCAKBAbkpnW-1" value="Home" style="fillColor=none;strokeColor=none;fontSize=14;fontColor=#161819;align=center;" parent="pefPUTUaozCAKBAbkpnW-0" vertex="1">
                    <mxGeometry width="70" height="40" relative="1" as="geometry">
                        <mxPoint x="130" y="10" as="offset"/>
                    </mxGeometry>
                </mxCell>
                <mxCell id="pefPUTUaozCAKBAbkpnW-2" value="History" style="fillColor=none;strokeColor=none;fontSize=14;fontColor=#71797E;align=center;" parent="pefPUTUaozCAKBAbkpnW-0" vertex="1">
                    <mxGeometry width="70" height="40" relative="1" as="geometry">
                        <mxPoint x="200" y="10" as="offset"/>
                    </mxGeometry>
                </mxCell>
                <mxCell id="pefPUTUaozCAKBAbkpnW-3" value="About" style="fillColor=none;strokeColor=none;fontSize=14;fontColor=#71797E;align=center;" parent="pefPUTUaozCAKBAbkpnW-0" vertex="1">
                    <mxGeometry width="80" height="40" relative="1" as="geometry">
                        <mxPoint x="270" y="10" as="offset"/>
                    </mxGeometry>
                </mxCell>
                <mxCell id="pefPUTUaozCAKBAbkpnW-4" value="exit" style="html=1;shadow=0;dashed=0;shape=mxgraph.bootstrap.rrect;rSize=5;fontSize=14;fontColor=#0085FC;strokeColor=#0085FC;fillColor=none;" parent="pefPUTUaozCAKBAbkpnW-0" vertex="1">
                    <mxGeometry x="1" width="70" height="40" relative="1" as="geometry">
                        <mxPoint x="-80" y="10" as="offset"/>
                    </mxGeometry>
                </mxCell>
                <mxCell id="pefPUTUaozCAKBAbkpnW-5" value="Some quick example text to build on the card title and make up the bulk of the card's content." style="html=1;shadow=0;dashed=0;shape=mxgraph.bootstrap.rrect;rSize=5;strokeColor=#DFDFDF;html=1;whiteSpace=wrap;fillColor=#ffffff;fontColor=#000000;verticalAlign=bottom;align=left;spacing=20;fontSize=14;" parent="npWErWVc9F3IIqFAF1oh-1" vertex="1">
                    <mxGeometry x="140" y="110" width="1350" height="350" as="geometry"/>
                </mxCell>
                <mxCell id="pefPUTUaozCAKBAbkpnW-6" value="Image cap" style="html=1;shadow=0;dashed=0;shape=mxgraph.bootstrap.topButton;rSize=5;perimeter=none;whiteSpace=wrap;fillColor=#868E96;strokeColor=#DFDFDF;fontColor=#DEE2E6;resizeWidth=1;fontSize=18;" parent="pefPUTUaozCAKBAbkpnW-5" vertex="1">
                    <mxGeometry width="1350" height="300" relative="1" as="geometry"/>
                </mxCell>
                <mxCell id="OCyuiaDRw6e9JtwbOCcq-17" value="Cras justo odio" style="html=1;strokeColor=none;fillColor=none;fontColor=#212529;perimeter=none;whiteSpace=wrap;resizeWidth=1;align=left;spacing=10;" parent="npWErWVc9F3IIqFAF1oh-1" vertex="1">
                    <mxGeometry x="140" y="460" width="200" height="30" as="geometry"/>
                </mxCell>
                <mxCell id="OCyuiaDRw6e9JtwbOCcq-18" value="Dapibus ac facilisis in" style="shape=partialRectangle;whiteSpace=wrap;left=0;right=0;fillColor=none;strokeColor=#DFDFDF;html=1;shadow=0;dashed=0;perimeter=none;whiteSpace=wrap;resizeWidth=1;align=left;spacing=10;" parent="npWErWVc9F3IIqFAF1oh-1" vertex="1">
                    <mxGeometry x="140" y="490" width="200" height="30" as="geometry"/>
                </mxCell>
                <mxCell id="OCyuiaDRw6e9JtwbOCcq-19" value="Morbi leo risus" style="shape=partialRectangle;whiteSpace=wrap;left=0;right=0;fillColor=none;strokeColor=#DFDFDF;html=1;shadow=0;dashed=0;perimeter=none;whiteSpace=wrap;resizeWidth=1;align=left;spacing=10;" parent="npWErWVc9F3IIqFAF1oh-1" vertex="1">
                    <mxGeometry x="140" y="520" width="200" height="30" as="geometry"/>
                </mxCell>
                <mxCell id="OCyuiaDRw6e9JtwbOCcq-20" value="Porta ac consectetur ac" style="shape=partialRectangle;whiteSpace=wrap;left=0;right=0;fillColor=none;strokeColor=#DFDFDF;html=1;shadow=0;dashed=0;perimeter=none;whiteSpace=wrap;resizeWidth=1;align=left;spacing=10;" parent="npWErWVc9F3IIqFAF1oh-1" vertex="1">
                    <mxGeometry x="140" y="550" width="200" height="30" as="geometry"/>
                </mxCell>
                <mxCell id="OCyuiaDRw6e9JtwbOCcq-21" value="Vestibulum at eros" style="html=1;strokeColor=none;fillColor=none;fontColor=#212529;perimeter=none;whiteSpace=wrap;resizeWidth=1;align=left;spacing=10;" parent="npWErWVc9F3IIqFAF1oh-1" vertex="1">
                    <mxGeometry x="140" y="580" width="200" height="30" as="geometry"/>
                </mxCell>
                <mxCell id="OCyuiaDRw6e9JtwbOCcq-22" value="Cras justo odio" style="html=1;strokeColor=none;fillColor=none;fontColor=#212529;perimeter=none;whiteSpace=wrap;resizeWidth=1;align=left;spacing=10;" parent="npWErWVc9F3IIqFAF1oh-1" vertex="1">
                    <mxGeometry x="140" y="610" width="200" height="30" as="geometry"/>
                </mxCell>
                <mxCell id="OCyuiaDRw6e9JtwbOCcq-23" value="Dapibus ac facilisis in" style="shape=partialRectangle;whiteSpace=wrap;left=0;right=0;fillColor=none;strokeColor=#DFDFDF;html=1;shadow=0;dashed=0;perimeter=none;whiteSpace=wrap;resizeWidth=1;align=left;spacing=10;" parent="npWErWVc9F3IIqFAF1oh-1" vertex="1">
                    <mxGeometry x="140" y="640" width="200" height="30" as="geometry"/>
                </mxCell>
                <mxCell id="OCyuiaDRw6e9JtwbOCcq-24" value="Morbi leo risus" style="shape=partialRectangle;whiteSpace=wrap;left=0;right=0;fillColor=none;strokeColor=#DFDFDF;html=1;shadow=0;dashed=0;perimeter=none;whiteSpace=wrap;resizeWidth=1;align=left;spacing=10;" parent="npWErWVc9F3IIqFAF1oh-1" vertex="1">
                    <mxGeometry x="140" y="670" width="200" height="30" as="geometry"/>
                </mxCell>
                <mxCell id="OCyuiaDRw6e9JtwbOCcq-25" value="Porta ac consectetur ac" style="shape=partialRectangle;whiteSpace=wrap;left=0;right=0;fillColor=none;strokeColor=#DFDFDF;html=1;shadow=0;dashed=0;perimeter=none;whiteSpace=wrap;resizeWidth=1;align=left;spacing=10;" parent="npWErWVc9F3IIqFAF1oh-1" vertex="1">
                    <mxGeometry x="140" y="700" width="200" height="30" as="geometry"/>
                </mxCell>
                <mxCell id="OCyuiaDRw6e9JtwbOCcq-26" value="Vestibulum at eros" style="html=1;strokeColor=none;fillColor=none;fontColor=#212529;perimeter=none;whiteSpace=wrap;resizeWidth=1;align=left;spacing=10;" parent="npWErWVc9F3IIqFAF1oh-1" vertex="1">
                    <mxGeometry x="140" y="730" width="200" height="30" as="geometry"/>
                </mxCell>
                <mxCell id="M4-NC4mDiYwZ9doTCMl3-1" value="You are in room xxxxxxx" style="text;html=1;align=center;verticalAlign=middle;resizable=0;points=[];autosize=1;" parent="npWErWVc9F3IIqFAF1oh-1" vertex="1">
                    <mxGeometry x="140" y="70" width="150" height="20" as="geometry"/>
                </mxCell>
                <mxCell id="M4-NC4mDiYwZ9doTCMl3-2" value="Copy link" style="html=1;shadow=0;dashed=0;shape=mxgraph.bootstrap.rrect;rSize=5;strokeColor=none;strokeWidth=1;fillColor=#0085FC;fontColor=#FFFFFF;whiteSpace=wrap;align=center;verticalAlign=middle;spacingLeft=0;fontStyle=0;fontSize=16;spacing=5;" parent="npWErWVc9F3IIqFAF1oh-1" vertex="1">
                    <mxGeometry x="300" y="65" width="90" height="30" as="geometry"/>
                </mxCell>
            </root>
        </mxGraphModel>
    </diagram>
    <diagram id="VjUH9Q85FokRLhZDvzZm" name="Upload Page">
        <mxGraphModel dx="1747" dy="884" grid="1" gridSize="10" guides="1" tooltips="1" connect="1" arrows="1" fold="1" page="1" pageScale="1" pageWidth="1600" pageHeight="900" math="0" shadow="0">
            <root>
                <mxCell id="_taWAuS0saVIPjQfKpEh-0"/>
                <mxCell id="_taWAuS0saVIPjQfKpEh-1" parent="_taWAuS0saVIPjQfKpEh-0"/>
                <mxCell id="uqpOr6AQpp-Ztq8-dM-y-0" value="ImageBrowser" style="html=1;shadow=0;dashed=0;fillColor=#E3F3FD;strokeColor=none;fontSize=16;fontColor=#161819;align=left;spacing=15;" parent="_taWAuS0saVIPjQfKpEh-1" vertex="1">
                    <mxGeometry width="1600" height="60" as="geometry"/>
                </mxCell>
                <mxCell id="uqpOr6AQpp-Ztq8-dM-y-1" value="Home" style="fillColor=none;strokeColor=none;fontSize=14;fontColor=#161819;align=center;" parent="uqpOr6AQpp-Ztq8-dM-y-0" vertex="1">
                    <mxGeometry width="70" height="40" relative="1" as="geometry">
                        <mxPoint x="130" y="10" as="offset"/>
                    </mxGeometry>
                </mxCell>
                <mxCell id="uqpOr6AQpp-Ztq8-dM-y-2" value="History" style="fillColor=none;strokeColor=none;fontSize=14;fontColor=#71797E;align=center;" parent="uqpOr6AQpp-Ztq8-dM-y-0" vertex="1">
                    <mxGeometry width="70" height="40" relative="1" as="geometry">
                        <mxPoint x="200" y="10" as="offset"/>
                    </mxGeometry>
                </mxCell>
                <mxCell id="uqpOr6AQpp-Ztq8-dM-y-3" value="About" style="fillColor=none;strokeColor=none;fontSize=14;fontColor=#71797E;align=center;" parent="uqpOr6AQpp-Ztq8-dM-y-0" vertex="1">
                    <mxGeometry width="80" height="40" relative="1" as="geometry">
                        <mxPoint x="270" y="10" as="offset"/>
                    </mxGeometry>
                </mxCell>
                <mxCell id="uqpOr6AQpp-Ztq8-dM-y-4" value="Exit" style="html=1;shadow=0;dashed=0;shape=mxgraph.bootstrap.rrect;rSize=5;fontSize=14;fontColor=#0085FC;strokeColor=#0085FC;fillColor=none;" parent="uqpOr6AQpp-Ztq8-dM-y-0" vertex="1">
                    <mxGeometry x="1" width="70" height="40" relative="1" as="geometry">
                        <mxPoint x="-80" y="10" as="offset"/>
                    </mxGeometry>
                </mxCell>
                <mxCell id="uqpOr6AQpp-Ztq8-dM-y-5" value="" style="html=1;shadow=0;dashed=0;shape=mxgraph.bootstrap.rrect;rSize=5;strokeColor=#CED4DA;html=1;whiteSpace=wrap;fillColor=#FFFFFF;fontColor=#7D868C;align=left;spacing=15;spacingLeft=40;fontSize=14;" parent="_taWAuS0saVIPjQfKpEh-1" vertex="1">
                    <mxGeometry x="400" y="180" width="800" height="40" as="geometry"/>
                </mxCell>
                <mxCell id="uqpOr6AQpp-Ztq8-dM-y-6" value="Title" style="html=1;shadow=0;dashed=0;shape=mxgraph.bootstrap.leftButton;strokeColor=inherit;gradientColor=inherit;fontColor=inherit;fillColor=#E9ECEF;rSize=5;perimeter=none;whiteSpace=wrap;resizeHeight=1;fontSize=14;" parent="uqpOr6AQpp-Ztq8-dM-y-5" vertex="1">
                    <mxGeometry width="90" height="40" as="geometry"/>
                </mxCell>
                <mxCell id="_taWAuS0saVIPjQfKpEh-5" value="Example file input" style="fillColor=none;strokeColor=none;align=left;fontSize=14;" parent="_taWAuS0saVIPjQfKpEh-1" vertex="1">
                    <mxGeometry x="400" y="550" width="150" height="40" as="geometry"/>
                </mxCell>
                <mxCell id="_taWAuS0saVIPjQfKpEh-6" value="Choose File" style="fillColor=#FEFEFE;strokeColor=#AAAAAA;fontSize=14;gradientColor=#F0F0F0;" parent="_taWAuS0saVIPjQfKpEh-1" vertex="1">
                    <mxGeometry x="400" y="590" width="90" height="30" as="geometry"/>
                </mxCell>
                <mxCell id="_taWAuS0saVIPjQfKpEh-7" value="No file chosen" style="fillColor=none;strokeColor=none;align=left;fontSize=14;spacing=5;" parent="_taWAuS0saVIPjQfKpEh-1" vertex="1">
                    <mxGeometry x="490" y="590" width="100" height="30" as="geometry"/>
                </mxCell>
                <mxCell id="_taWAuS0saVIPjQfKpEh-8" value="" style="html=1;shadow=0;dashed=0;shape=mxgraph.bootstrap.rrect;rSize=5;strokeColor=#CED4DA;html=1;whiteSpace=wrap;fillColor=#FFFFFF;fontColor=#7D868C;align=left;spacing=15;spacingLeft=40;fontSize=14;" parent="_taWAuS0saVIPjQfKpEh-1" vertex="1">
                    <mxGeometry x="400" y="230" width="800" height="90" as="geometry"/>
                </mxCell>
                <mxCell id="_taWAuS0saVIPjQfKpEh-9" value="Description" style="html=1;shadow=0;dashed=0;shape=mxgraph.bootstrap.leftButton;strokeColor=inherit;gradientColor=inherit;fontColor=inherit;fillColor=#E9ECEF;rSize=5;perimeter=none;whiteSpace=wrap;resizeHeight=1;fontSize=14;" parent="_taWAuS0saVIPjQfKpEh-8" vertex="1">
                    <mxGeometry width="90" height="90" as="geometry"/>
                </mxCell>
                <mxCell id="_taWAuS0saVIPjQfKpEh-10" value="Dropdown button" style="rounded=1;fillColor=#F1F2F4;strokeColor=none;html=1;fontColor=#596780;align=left;fontSize=12;spacingLeft=10" parent="_taWAuS0saVIPjQfKpEh-1" vertex="1">
                    <mxGeometry x="400" y="330" width="140" height="33" as="geometry"/>
                </mxCell>
                <mxCell id="_taWAuS0saVIPjQfKpEh-11" value="" style="shape=triangle;direction=south;fillColor=#596780;strokeColor=none;html=1" parent="_taWAuS0saVIPjQfKpEh-10" vertex="1">
                    <mxGeometry x="1" y="0.5" width="12" height="6" relative="1" as="geometry">
                        <mxPoint x="-20" y="-3" as="offset"/>
                    </mxGeometry>
                </mxCell>
                <mxCell id="_taWAuS0saVIPjQfKpEh-12" value="" style="html=1;shadow=0;dashed=0;shape=mxgraph.bootstrap.rrect;rSize=5;strokeColor=#CED4DA;html=1;whiteSpace=wrap;fillColor=#FFFFFF;fontColor=#7D868C;align=left;spacing=15;spacingLeft=40;fontSize=14;" parent="_taWAuS0saVIPjQfKpEh-1" vertex="1">
                    <mxGeometry x="400" y="470" width="800" height="40" as="geometry"/>
                </mxCell>
                <mxCell id="_taWAuS0saVIPjQfKpEh-13" value="URL" style="html=1;shadow=0;dashed=0;shape=mxgraph.bootstrap.leftButton;strokeColor=inherit;gradientColor=inherit;fontColor=inherit;fillColor=#E9ECEF;rSize=5;perimeter=none;whiteSpace=wrap;resizeHeight=1;fontSize=14;" parent="_taWAuS0saVIPjQfKpEh-12" vertex="1">
                    <mxGeometry width="90" height="40" as="geometry"/>
                </mxCell>
                <mxCell id="yYaI9d6NoVsH-tl0QjPs-1" value="Submit" style="html=1;shadow=0;dashed=0;shape=mxgraph.bootstrap.rrect;rSize=5;strokeColor=none;strokeWidth=1;fillColor=#0085FC;fontColor=#FFFFFF;whiteSpace=wrap;align=center;verticalAlign=middle;spacingLeft=0;fontStyle=0;fontSize=16;spacing=5;" parent="_taWAuS0saVIPjQfKpEh-1" vertex="1">
                    <mxGeometry x="1000" y="630" width="200" height="40" as="geometry"/>
                </mxCell>
            </root>
        </mxGraphModel>
    </diagram>
    <diagram id="FS9AC2aH7aNXBeUNpC4l" name="Uploaded Page">
        <mxGraphModel dx="1747" dy="884" grid="1" gridSize="10" guides="1" tooltips="1" connect="1" arrows="1" fold="1" page="1" pageScale="1" pageWidth="1600" pageHeight="900" math="0" shadow="0">
            <root>
                <mxCell id="woKi-y-Kxhk13CgF9vvk-0"/>
                <mxCell id="woKi-y-Kxhk13CgF9vvk-1" parent="woKi-y-Kxhk13CgF9vvk-0"/>
                <mxCell id="woKi-y-Kxhk13CgF9vvk-2" value="Your room link" style="html=1;shadow=0;dashed=0;shape=mxgraph.bootstrap.rrect;rSize=5;strokeColor=#B8DCFE;strokeWidth=1;fillColor=#CCE7FE;fontColor=#004583;whiteSpace=wrap;align=left;verticalAlign=middle;spacingLeft=10;" parent="woKi-y-Kxhk13CgF9vvk-1" vertex="1">
                    <mxGeometry x="430" y="320" width="800" height="40" as="geometry"/>
                </mxCell>
                <mxCell id="woKi-y-Kxhk13CgF9vvk-3" value="Join" style="html=1;shadow=0;dashed=0;shape=mxgraph.bootstrap.rrect;rSize=5;strokeColor=none;strokeWidth=1;fillColor=#0085FC;fontColor=#FFFFFF;whiteSpace=wrap;align=left;verticalAlign=middle;spacingLeft=0;fontStyle=1;fontSize=14;spacing=5;" parent="woKi-y-Kxhk13CgF9vvk-1" vertex="1">
                    <mxGeometry x="1000" y="500" width="100" height="50" as="geometry"/>
                </mxCell>
                <mxCell id="woKi-y-Kxhk13CgF9vvk-4" value="Copy link" style="html=1;shadow=0;dashed=0;shape=mxgraph.bootstrap.rrect;rSize=5;strokeColor=none;strokeWidth=1;fillColor=#0085FC;fontColor=#FFFFFF;whiteSpace=wrap;align=left;verticalAlign=middle;spacingLeft=0;fontStyle=1;fontSize=14;spacing=5;" parent="woKi-y-Kxhk13CgF9vvk-1" vertex="1">
                    <mxGeometry x="520" y="500" width="110" height="50" as="geometry"/>
                </mxCell>
            </root>
        </mxGraphModel>
    </diagram>
</mxfile>